<svg width="161" height="21" viewBox="0 0 161 21" fill="none" xmlns="http://www.w3.org/2000/svg">
<path d="M0.197388 21V5.61914H2.02844L2.51184 7.58203C3.8595 6.27344 5.48059 5.61914 7.37512 5.61914V7.875C5.53918 7.875 4.04993 8.52441 2.90735 9.82324V21H0.197388ZM17.4925 5.61914C21.8675 5.61914 24.055 7.78223 24.055 12.1084C24.055 12.7236 24.0111 13.3828 23.9232 14.0859H13.1273C13.1273 17.2305 14.9632 18.8027 18.6351 18.8027C20.3831 18.8027 21.9359 18.6074 23.2933 18.2168V20.4141C21.9359 20.8047 20.2855 21 18.3421 21C13.0589 21 10.4173 18.3779 10.4173 13.1338C10.4173 8.12402 12.7757 5.61914 17.4925 5.61914ZM13.1273 11.8301H21.4476C21.389 9.13477 20.0706 7.78711 17.4925 7.78711C14.7581 7.78711 13.3031 9.13477 13.1273 11.8301ZM28.7525 21V0.0527344H32.7808L39.8853 15.9463L46.8433 0.0527344H50.7251V21H47.1363V6.41016L41.4527 21H38.1421L32.3413 6.41016V21H28.7525ZM55.4372 16.3564C55.4372 13.2021 57.5173 11.625 61.6775 11.625C63.0154 11.625 64.3532 11.7227 65.6911 11.918V10.4678C65.6911 8.7002 64.3093 7.81641 61.5456 7.81641C59.9636 7.81641 58.3425 8.06055 56.6824 8.54883V6.35156C58.3425 5.86328 59.9636 5.61914 61.5456 5.61914C66.1159 5.61914 68.4011 7.21094 68.4011 10.3945V21H66.8777L65.9402 19.4766C64.407 20.4922 62.737 21 60.9304 21C57.2683 21 55.4372 19.4521 55.4372 16.3564ZM61.6775 13.8223C59.324 13.8223 58.1472 14.6523 58.1472 16.3125C58.1472 17.9727 59.0749 18.8027 60.9304 18.8027C62.8054 18.8027 64.3923 18.3047 65.6911 17.3086V14.1152C64.3532 13.9199 63.0154 13.8223 61.6775 13.8223ZM73.8603 21V5.61914H75.6913L76.1747 7.58203C77.5224 6.27344 79.1435 5.61914 81.038 5.61914V7.875C79.2021 7.875 77.7128 8.52441 76.5702 9.82324V21H73.8603ZM84.8126 21V0.0527344H87.5226V6.82031C89.0167 6.01953 90.7404 5.61914 92.6935 5.61914C96.5216 5.61914 98.4357 7.09863 98.4357 10.0576C98.4357 12.2061 96.9708 13.6904 94.0411 14.5107L98.963 21H95.5353L90.6427 14.4814V13.2656C94.0314 12.9629 95.7257 11.8887 95.7257 10.043C95.7257 8.55859 94.6515 7.81641 92.5031 7.81641C90.8136 7.81641 89.1534 8.27539 87.5226 9.19336V21H84.8126ZM102.445 16.3564C102.445 13.2021 104.525 11.625 108.685 11.625C110.023 11.625 111.361 11.7227 112.699 11.918V10.4678C112.699 8.7002 111.317 7.81641 108.553 7.81641C106.971 7.81641 105.35 8.06055 103.69 8.54883V6.35156C105.35 5.86328 106.971 5.61914 108.553 5.61914C113.123 5.61914 115.409 7.21094 115.409 10.3945V21H113.885L112.948 19.4766C111.414 20.4922 109.744 21 107.938 21C104.276 21 102.445 19.4521 102.445 16.3564ZM108.685 13.8223C106.331 13.8223 105.155 14.6523 105.155 16.3125C105.155 17.9727 106.082 18.8027 107.938 18.8027C109.813 18.8027 111.4 18.3047 112.699 17.3086V14.1152C111.361 13.9199 110.023 13.8223 108.685 13.8223ZM123.578 18.3193C124.466 18.6025 125.545 18.7441 126.815 18.7441C130.233 18.7441 131.942 16.7959 131.942 12.8994C131.942 9.6084 130.394 7.96289 127.298 7.96289C125.892 7.96289 124.652 8.22656 123.578 8.75391V18.3193ZM120.868 0.0527344H123.578V6.35156C124.74 5.86328 125.985 5.61914 127.313 5.61914C132.176 5.61914 134.608 8.08008 134.608 13.002C134.608 18.334 132.054 21 126.947 21C124.74 21 122.713 20.79 120.868 20.3701V0.0527344ZM142.176 0.0527344V21H139.467V0.0527344H142.176ZM154.125 5.61914C158.5 5.61914 160.687 7.78223 160.687 12.1084C160.687 12.7236 160.643 13.3828 160.556 14.0859H149.76C149.76 17.2305 151.596 18.8027 155.268 18.8027C157.016 18.8027 158.568 18.6074 159.926 18.2168V20.4141C158.568 20.8047 156.918 21 154.975 21C149.691 21 147.05 18.3779 147.05 13.1338C147.05 8.12402 149.408 5.61914 154.125 5.61914ZM149.76 11.8301H158.08C158.021 9.13477 156.703 7.78711 154.125 7.78711C151.391 7.78711 149.935 9.13477 149.76 11.8301Z" fill="black"/>
</svg>
