<svg width="139" height="22" viewBox="0 0 139 22" fill="none" xmlns="http://www.w3.org/2000/svg">
<path fill-rule="evenodd" clip-rule="evenodd" d="M11 20C12.1819 20 13.3522 19.7672 14.4442 19.3149C15.5361 18.8626 16.5282 18.1997 17.364 17.364C18.1997 16.5282 18.8626 15.5361 19.3149 14.4442C19.7672 13.3522 20 12.1819 20 11C20 9.8181 19.7672 8.64778 19.3149 7.55585C18.8626 6.46392 18.1997 5.47177 17.364 4.63604C16.5282 3.80031 15.5361 3.13738 14.4442 2.68508C13.3522 2.23279 12.1819 2 11 2C8.61305 2 6.32387 2.94821 4.63604 4.63604C2.94821 6.32387 2 8.61305 2 11C2 13.3869 2.94821 15.6761 4.63604 17.364C6.32387 19.0518 8.61305 20 11 20ZM11 22C17.075 22 22 17.075 22 11C22 4.925 17.075 0 11 0C4.925 0 0 4.925 0 11C0 17.075 4.925 22 11 22Z" fill="white"/>
<path d="M15 10.9999L9 15.3299V6.66992L15 10.9999Z" fill="white"/>
<path d="M44.4 8.172L41.322 18H40.062L37.344 9.756L34.626 18H33.348L30.27 8.172H31.548L33.996 16.722L36.75 8.172H38.01L40.728 16.74L43.158 8.172H44.4ZM45.5417 13.068C45.5417 12.06 45.7397 11.178 46.1357 10.422C46.5437 9.654 47.1017 9.066 47.8097 8.658C48.5297 8.238 49.3397 8.028 50.2397 8.028C51.1757 8.028 51.9797 8.244 52.6517 8.676C53.3357 9.108 53.8277 9.66 54.1277 10.332V8.172H55.3877V18H54.1277V15.822C53.8157 16.494 53.3177 17.052 52.6337 17.496C51.9617 17.928 51.1577 18.144 50.2217 18.144C49.3337 18.144 48.5297 17.934 47.8097 17.514C47.1017 17.094 46.5437 16.5 46.1357 15.732C45.7397 14.964 45.5417 14.076 45.5417 13.068ZM54.1277 13.086C54.1277 12.294 53.9657 11.598 53.6417 10.998C53.3177 10.398 52.8737 9.936 52.3097 9.612C51.7577 9.288 51.1457 9.126 50.4737 9.126C49.7777 9.126 49.1537 9.282 48.6017 9.594C48.0497 9.906 47.6117 10.362 47.2877 10.962C46.9757 11.55 46.8197 12.252 46.8197 13.068C46.8197 13.872 46.9757 14.58 47.2877 15.192C47.6117 15.792 48.0497 16.254 48.6017 16.578C49.1537 16.89 49.7777 17.046 50.4737 17.046C51.1457 17.046 51.7577 16.884 52.3097 16.56C52.8737 16.236 53.3177 15.774 53.6417 15.174C53.9657 14.574 54.1277 13.878 54.1277 13.086ZM59.9022 9.234V15.336C59.9022 15.936 60.0162 16.35 60.2442 16.578C60.4722 16.806 60.8742 16.92 61.4502 16.92H62.6022V18H61.2522C60.3642 18 59.7042 17.796 59.2722 17.388C58.8402 16.968 58.6242 16.284 58.6242 15.336V9.234H57.2562V8.172H58.6242V5.706H59.9022V8.172H62.6022V9.234H59.9022ZM64.1042 13.086C64.1042 12.066 64.3082 11.178 64.7162 10.422C65.1242 9.654 65.6882 9.066 66.4082 8.658C67.1282 8.238 67.9502 8.028 68.8742 8.028C70.0862 8.028 71.0822 8.328 71.8622 8.928C72.6542 9.528 73.1642 10.344 73.3922 11.376H72.0422C71.8742 10.668 71.5082 10.116 70.9442 9.72C70.3922 9.312 69.7022 9.108 68.8742 9.108C68.2142 9.108 67.6202 9.258 67.0922 9.558C66.5642 9.858 66.1442 10.308 65.8322 10.908C65.5322 11.496 65.3822 12.222 65.3822 13.086C65.3822 13.95 65.5322 14.682 65.8322 15.282C66.1442 15.882 66.5642 16.332 67.0922 16.632C67.6202 16.932 68.2142 17.082 68.8742 17.082C69.7022 17.082 70.3922 16.884 70.9442 16.488C71.5082 16.08 71.8742 15.516 72.0422 14.796H73.3922C73.1642 15.804 72.6542 16.614 71.8622 17.226C71.0702 17.838 70.0742 18.144 68.8742 18.144C67.9502 18.144 67.1282 17.94 66.4082 17.532C65.6882 17.112 65.1242 16.524 64.7162 15.768C64.3082 15 64.1042 14.106 64.1042 13.086ZM80.3993 7.992C81.1433 7.992 81.8093 8.148 82.3973 8.46C82.9973 8.772 83.4653 9.252 83.8013 9.9C84.1493 10.536 84.3233 11.316 84.3233 12.24V18H83.0813V12.384C83.0813 11.316 82.8113 10.5 82.2713 9.936C81.7433 9.372 81.0173 9.09 80.0933 9.09C79.1453 9.09 78.3893 9.39 77.8253 9.99C77.2613 10.59 76.9793 11.472 76.9793 12.636V18H75.7193V4.68H76.9793V9.846C77.2913 9.258 77.7473 8.802 78.3473 8.478C78.9593 8.154 79.6433 7.992 80.3993 7.992ZM95.5414 16.776L98.8534 8.172H100.185L96.2434 18H94.8214L90.8794 8.172H92.2294L95.5414 16.776ZM102.523 6.318C102.271 6.318 102.055 6.228 101.875 6.048C101.695 5.868 101.605 5.646 101.605 5.382C101.605 5.118 101.695 4.902 101.875 4.734C102.055 4.554 102.271 4.464 102.523 4.464C102.775 4.464 102.991 4.554 103.171 4.734C103.351 4.902 103.441 5.118 103.441 5.382C103.441 5.646 103.351 5.868 103.171 6.048C102.991 6.228 102.775 6.318 102.523 6.318ZM103.153 8.172V18H101.893V8.172H103.153ZM105.43 13.068C105.43 12.06 105.634 11.178 106.042 10.422C106.45 9.654 107.008 9.066 107.716 8.658C108.436 8.238 109.246 8.028 110.146 8.028C111.01 8.028 111.79 8.238 112.486 8.658C113.182 9.078 113.692 9.624 114.016 10.296V4.68H115.276V18H114.016V15.804C113.716 16.488 113.224 17.052 112.54 17.496C111.856 17.928 111.052 18.144 110.128 18.144C109.228 18.144 108.418 17.934 107.698 17.514C106.99 17.094 106.432 16.5 106.024 15.732C105.628 14.964 105.43 14.076 105.43 13.068ZM114.016 13.086C114.016 12.294 113.854 11.598 113.53 10.998C113.206 10.398 112.762 9.936 112.198 9.612C111.646 9.288 111.034 9.126 110.362 9.126C109.666 9.126 109.042 9.282 108.49 9.594C107.938 9.906 107.5 10.362 107.176 10.962C106.864 11.55 106.708 12.252 106.708 13.068C106.708 13.872 106.864 14.58 107.176 15.192C107.5 15.792 107.938 16.254 108.49 16.578C109.042 16.89 109.666 17.046 110.362 17.046C111.034 17.046 111.646 16.884 112.198 16.56C112.762 16.236 113.206 15.774 113.53 15.174C113.854 14.574 114.016 13.878 114.016 13.086ZM127.045 12.582C127.045 13.014 127.033 13.344 127.009 13.572H118.855C118.891 14.316 119.071 14.952 119.395 15.48C119.719 16.008 120.145 16.41 120.673 16.686C121.201 16.95 121.777 17.082 122.401 17.082C123.217 17.082 123.901 16.884 124.453 16.488C125.017 16.092 125.389 15.558 125.569 14.886H126.901C126.661 15.846 126.145 16.632 125.353 17.244C124.573 17.844 123.589 18.144 122.401 18.144C121.477 18.144 120.649 17.94 119.917 17.532C119.185 17.112 118.609 16.524 118.189 15.768C117.781 15 117.577 14.106 117.577 13.086C117.577 12.066 117.781 11.172 118.189 10.404C118.597 9.636 119.167 9.048 119.899 8.64C120.631 8.232 121.465 8.028 122.401 8.028C123.337 8.028 124.153 8.232 124.849 8.64C125.557 9.048 126.097 9.6 126.469 10.296C126.853 10.98 127.045 11.742 127.045 12.582ZM125.767 12.546C125.779 11.814 125.629 11.19 125.317 10.674C125.017 10.158 124.603 9.768 124.075 9.504C123.547 9.24 122.971 9.108 122.347 9.108C121.411 9.108 120.613 9.408 119.953 10.008C119.293 10.608 118.927 11.454 118.855 12.546H125.767ZM133.652 18.144C132.728 18.144 131.894 17.94 131.15 17.532C130.418 17.112 129.836 16.524 129.404 15.768C128.984 15 128.774 14.106 128.774 13.086C128.774 12.066 128.99 11.178 129.422 10.422C129.854 9.654 130.442 9.066 131.186 8.658C131.93 8.238 132.764 8.028 133.688 8.028C134.612 8.028 135.446 8.238 136.19 8.658C136.946 9.066 137.534 9.654 137.954 10.422C138.386 11.178 138.602 12.066 138.602 13.086C138.602 14.094 138.386 14.982 137.954 15.75C137.522 16.518 136.928 17.112 136.172 17.532C135.416 17.94 134.576 18.144 133.652 18.144ZM133.652 17.046C134.3 17.046 134.9 16.902 135.452 16.614C136.004 16.314 136.448 15.87 136.784 15.282C137.132 14.682 137.306 13.95 137.306 13.086C137.306 12.222 137.138 11.496 136.802 10.908C136.466 10.308 136.022 9.864 135.47 9.576C134.918 9.276 134.318 9.126 133.67 9.126C133.022 9.126 132.422 9.276 131.87 9.576C131.318 9.864 130.874 10.308 130.538 10.908C130.214 11.496 130.052 12.222 130.052 13.086C130.052 13.95 130.214 14.682 130.538 15.282C130.874 15.87 131.312 16.314 131.852 16.614C132.404 16.902 133.004 17.046 133.652 17.046Z" fill="white"/>
</svg>
