<svg width="145" height="145" viewBox="0 0 145 145" fill="none" xmlns="http://www.w3.org/2000/svg">
<circle cx="72.5001" cy="72.5" r="71.5" stroke="white" stroke-width="2" stroke-linecap="round" stroke-dasharray="8 4 12 12"/>
<path d="M30.2609 37.5859H32.3156L34.6227 51.865L39.26 37.5859H41.3835L46.3537 51.865L48.9593 37.5859H50.9221L47.8344 54H44.9418L40.3045 40.2489L35.8165 54H32.9584L30.2609 37.5859ZM55.5901 47.9279C55.5901 50.8281 56.7954 52.2782 59.2058 52.2782C61.6163 52.2782 62.8215 50.8281 62.8215 47.9279C62.8215 45.0889 61.6163 43.6694 59.2058 43.6694C56.7954 43.6694 55.5901 45.0889 55.5901 47.9279ZM53.4666 47.9738C53.4666 43.9564 55.3797 41.9477 59.2058 41.9477C63.032 41.9477 64.945 43.9564 64.945 47.9738C64.945 51.9836 63.032 53.9885 59.2058 53.9885C55.395 53.9885 53.4819 51.9836 53.4666 47.9738ZM68.6374 54V41.9477H70.0722L70.451 43.4858C71.507 42.4604 72.7773 41.9477 74.2618 41.9477V43.7153C72.8232 43.7153 71.6562 44.2242 70.7609 45.242V54H68.6374ZM79.4579 37.5859V54H77.3344V37.5859H79.4579ZM91.9427 44.404C91.0857 43.9908 90.1062 43.7842 89.0042 43.7842C86.5785 43.7842 85.3656 45.0736 85.3656 47.6524C85.3656 50.7057 86.5785 52.2323 89.0042 52.2323C90.1062 52.2323 91.0857 52.0831 91.9427 51.7847V44.404ZM94.0662 53.2769C92.6046 53.759 90.8025 54 88.6599 54C85.071 54 83.2765 51.9109 83.2765 47.7328C83.2765 43.876 85.1819 41.9477 88.9928 41.9477C90.0335 41.9477 91.0168 42.139 91.9427 42.5216V37.5859H94.0662V53.2769ZM101.03 37.5859L99.3082 42.579H97.1847L98.9064 37.5859H101.03ZM104.045 53.4261V51.5895C105.461 52.0487 106.892 52.2782 108.338 52.2782C110.259 52.2782 111.219 51.7043 111.219 50.5565C111.219 49.4852 110.55 48.9495 109.21 48.9495H107.489C104.887 48.9495 103.586 47.7634 103.586 45.3912C103.586 43.0955 105.258 41.9477 108.602 41.9477C110.041 41.9477 111.468 42.139 112.883 42.5216V44.3581C111.468 43.899 110.041 43.6694 108.602 43.6694C106.597 43.6694 105.595 44.2433 105.595 45.3912C105.595 46.4625 106.226 46.9982 107.489 46.9982H109.21C111.965 46.9982 113.343 48.1843 113.343 50.5565C113.343 52.8522 111.674 54 108.338 54C106.892 54 105.461 53.8087 104.045 53.4261ZM35.2559 63.5859V65.3076H30.0906V80H27.9671V65.3076H22.8018V63.5859H35.2559ZM38.3858 80V63.5859H40.5093V69.2562C41.5347 68.3838 42.7859 67.9477 44.2628 67.9477C47.2701 67.9477 48.7738 69.4437 48.7738 72.4357V80H46.6503V72.4013C46.6503 70.6107 45.7588 69.7153 43.9758 69.7153C42.7591 69.7153 41.6036 70.2242 40.5093 71.242V80H38.3858ZM55.4046 67.9477V80H53.2811V67.9477H55.4046ZM55.4046 63.5859V65.5946H53.2811V63.5859H55.4046ZM59.912 80V67.9477H61.3468L61.7256 69.4858C62.9576 68.4604 64.312 67.9477 65.7889 67.9477C68.7963 67.9477 70.2999 69.4437 70.2999 72.4357V80H68.1764V72.4013C68.1764 70.6107 67.2849 69.7153 65.502 69.7153C64.2852 69.7153 63.1298 70.2242 62.0355 71.242V80H59.912ZM74.5777 80V67.9477H76.0125L76.3913 69.4858C77.6233 68.4604 78.9778 67.9477 80.4547 67.9477C83.462 67.9477 84.9657 69.4437 84.9657 72.4357V80H82.8422V72.4013C82.8422 70.6107 81.9507 69.7153 80.1677 69.7153C78.951 69.7153 77.7955 70.2242 76.7012 71.242V80H74.5777ZM94.2136 67.9477C97.6418 67.9477 99.3559 69.6426 99.3559 73.0326C99.3559 73.5147 99.3215 74.0312 99.2526 74.5822H90.793C90.793 77.0462 92.2317 78.2782 95.1089 78.2782C96.4787 78.2782 97.6954 78.1252 98.7591 77.8191V79.5409C97.6954 79.847 96.4022 80 94.8794 80C90.7395 80 88.6695 77.9454 88.6695 73.8361C88.6695 69.9105 90.5176 67.9477 94.2136 67.9477ZM90.793 72.8145H97.3128C97.2669 70.7025 96.2338 69.6465 94.2136 69.6465C92.071 69.6465 90.9308 70.7025 90.793 72.8145ZM102.922 79.4261V77.5895C104.338 78.0487 105.769 78.2782 107.215 78.2782C109.136 78.2782 110.096 77.7043 110.096 76.5565C110.096 75.4852 109.426 74.9495 108.087 74.9495H106.366C103.764 74.9495 102.463 73.7634 102.463 71.3912C102.463 69.0955 104.135 67.9477 107.479 67.9477C108.918 67.9477 110.345 68.139 111.76 68.5216V70.3581C110.345 69.899 108.918 69.6694 107.479 69.6694C105.474 69.6694 104.472 70.2433 104.472 71.3912C104.472 72.4625 105.103 72.9982 106.366 72.9982H108.087C110.842 72.9982 112.22 74.1843 112.22 76.5565C112.22 78.8522 110.551 80 107.215 80C105.769 80 104.338 79.8087 102.922 79.4261ZM115.912 65.9963H117.243L117.703 67.9477H120.962V69.6694H118.035V76.5909C118.035 77.7158 118.521 78.2782 119.493 78.2782H120.962V80H118.942C116.922 80 115.912 78.9172 115.912 76.7516V65.9963ZM50.0575 89.5859V91.3076H44.8922V106H42.7687V91.3076H37.6034V89.5859H50.0575ZM52.6135 102.361C52.6135 99.8897 54.2435 98.6538 57.5033 98.6538C58.5517 98.6538 59.6001 98.7303 60.6484 98.8834V97.747C60.6484 96.362 59.5656 95.6694 57.4 95.6694C56.1604 95.6694 54.8901 95.8607 53.5892 96.2433V94.5216C54.8901 94.139 56.1604 93.9477 57.4 93.9477C60.9813 93.9477 62.7719 95.195 62.7719 97.6896V106H61.5782L60.8436 104.806C59.6422 105.602 58.3336 106 56.9179 106C54.0483 106 52.6135 104.787 52.6135 102.361ZM57.5033 100.376C55.6591 100.376 54.737 101.026 54.737 102.327C54.737 103.628 55.464 104.278 56.9179 104.278C58.3872 104.278 59.6307 103.888 60.6484 103.107V100.605C59.6001 100.452 58.5517 100.376 57.5033 100.376ZM69.1732 103.899C69.8696 104.121 70.7152 104.232 71.7099 104.232C74.3882 104.232 75.7274 102.706 75.7274 99.6524C75.7274 97.0736 74.5145 95.7842 72.0887 95.7842C70.9868 95.7842 70.015 95.9908 69.1732 96.404V103.899ZM67.0497 89.5859H69.1732V94.5216C70.0838 94.139 71.0595 93.9477 72.1002 93.9477C75.911 93.9477 77.8165 95.876 77.8165 99.7328C77.8165 103.911 75.8154 106 71.8133 106C70.0838 106 68.496 105.835 67.0497 105.506V89.5859ZM83.7471 89.5859V106H81.6236V89.5859H83.7471ZM93.1098 93.9477C96.5381 93.9477 98.2522 95.6426 98.2522 99.0326C98.2522 99.5147 98.2177 100.031 98.1489 100.582H89.6893C89.6893 103.046 91.1279 104.278 94.0052 104.278C95.3749 104.278 96.5916 104.125 97.6553 103.819V105.541C96.5916 105.847 95.2984 106 93.7756 106C89.6357 106 87.5658 103.945 87.5658 99.8361C87.5658 95.9105 89.4138 93.9477 93.1098 93.9477ZM89.6893 98.8145H96.209C96.1631 96.7025 95.13 95.6465 93.1098 95.6465C90.9672 95.6465 89.827 96.7025 89.6893 98.8145ZM101.933 91.9963H103.265L103.724 93.9477H106.984V95.6694H104.057V102.591C104.057 103.716 104.543 104.278 105.514 104.278H106.984V106H104.963C102.943 106 101.933 104.917 101.933 102.752V91.9963Z" fill="white"/>
</svg>
